<svg width="40" height="40" viewBox="0 0 40 40" fill="none" xmlns="http://www.w3.org/2000/svg">
<rect width="40" height="40" rx="20" fill="#003366"></rect>
<path fill-rule="evenodd" clip-rule="evenodd" d="M17.2159 13.875L25.5682 13.875C25.7159 13.875 25.8575 13.9337 25.9619 14.0381C26.0663 14.1425 26.125 14.2841 26.125 14.4318V22.7841C26.125 23.0916 25.8757 23.3409 25.5682 23.3409C25.2607 23.3409 25.0114 23.0916 25.0114 22.7841V15.7761L14.8255 25.9619C14.6081 26.1794 14.2555 26.1794 14.0381 25.9619C13.8206 25.7445 13.8206 25.3919 14.0381 25.1745L24.2239 14.9886L17.2159 14.9886C16.9084 14.9886 16.6591 14.7393 16.6591 14.4318C16.6591 14.1243 16.9084 13.875 17.2159 13.875Z" fill="#FBFBFB"></path>
</svg>
