<svg width="371" height="64" viewBox="0 0 371 64" fill="none" xmlns="http://www.w3.org/2000/svg">
<g clip-path="url('#clip0_2072_2046')">
<path fill-rule="evenodd" clip-rule="evenodd" d="M192.673 6.02675C188.182 6.2777 183.72 6.92014 179.34 7.94675C178.673 7.94675 173.82 8.66675 173.26 8.90675C173.157 8.93049 173.059 8.97601 172.975 9.04028C172.891 9.10454 172.821 9.18608 172.77 9.27945C172.72 9.37282 172.69 9.47587 172.682 9.58174C172.675 9.68761 172.69 9.79387 172.727 9.89342C173.073 10.9067 181.473 9.89342 193.073 8.96008C196.54 8.50675 198.94 7.78675 202.193 7.14675C203.909 6.89856 205.596 6.48782 207.233 5.92008C207.287 5.8194 207.319 5.70871 207.328 5.59498C207.337 5.48125 207.322 5.36693 207.284 5.25923C207.247 5.15153 207.187 5.05276 207.11 4.96916C207.032 4.88555 206.938 4.8189 206.833 4.77342C206.353 4.26675 205.82 4.56008 192.673 6.02675Z" fill="#343434"></path>
<path fill-rule="evenodd" clip-rule="evenodd" d="M210.673 42.6667V11.7067C210.673 11.44 211.073 10.3734 209.9 10.3734C209.66 10.3734 205.5 11.2 205.233 11.2534L196.513 11.9467C190.967 12.48 185.393 12.6667 179.847 13.04C172.3 13.5734 171.847 14.0534 168.753 13.6534C167.607 13.4934 166.46 13.36 166.087 12.6667C165.911 12.2074 165.881 11.7054 166 11.2285C166.12 10.7515 166.383 10.3227 166.753 10C169.5 6.64004 175.127 5.33337 179.367 4.29337C189.153 1.92004 192.513 2.80004 199.393 2.3467C203.313 2.08004 205.793 1.81337 205.527 0.613369C205.508 0.510761 205.468 0.413049 205.411 0.326115C205.353 0.239182 205.278 0.164826 205.191 0.107523C205.104 0.0502206 205.006 0.011157 204.903 -0.00731566C204.8 -0.0257883 204.695 -0.0232878 204.593 3.51612e-05C195.073 2.05337 190.007 -2.02663 171.233 3.7067C161.5 6.80004 158.833 17.04 171.26 16.7734C169.496 29.8967 169.093 43.1673 170.06 56.3734C170.06 58.5334 170.06 59.84 170.86 60.1067C172.433 60.56 172.113 58.1067 172.033 56.3734C172.033 40.8 172.753 46 172.78 27.04C172.78 15.4667 172.78 16.56 173.047 16.5334C181.607 15.3067 199.713 14.2667 208.753 12.4C207.953 65.7334 208.46 33.8667 208.567 48.3734C208.594 49.1148 208.54 49.857 208.407 50.5867C208.087 52.5867 185.66 58.4534 180.753 59.6534C174.487 61.2267 169.66 61.68 163.74 58.96C161.073 53.4134 162.087 24.4267 162.593 18.96C162.615 18.7549 162.553 18.5498 162.423 18.3898C162.293 18.2297 162.105 18.1279 161.9 18.1067C161.695 18.0855 161.49 18.1466 161.33 18.2766C161.17 18.4067 161.068 18.5949 161.047 18.8C160.38 24.2934 158.647 52.3734 160.833 59.2C161.42 61.0667 162.22 61.44 163.873 62.1334C167.303 63.6965 171.08 64.3398 174.833 64C183.949 62.4861 192.885 60.0376 201.5 56.6934C203.833 56.0719 206.123 55.2969 208.353 54.3734C212.86 51.9467 210.727 47.4134 210.673 42.6667Z" fill="#343434"></path>
<path fill-rule="evenodd" clip-rule="evenodd" d="M180.167 35.2267C181.847 35.6801 183.607 35.2267 195.34 33.1734C197.1 32.8534 199.82 32.6934 200.673 31.0134C201.177 29.4275 201.278 27.7413 200.967 26.1067C200.967 24.8267 202.487 19.1201 199.26 19.2534C199.1 19.2534 180.007 22.2401 178.807 22.2667C178.573 22.2667 178.35 22.3594 178.184 22.5245C178.019 22.6895 177.927 22.9133 177.927 23.1467C177.927 23.8401 178.167 22.4267 177.927 26.7201C178.14 29.7067 176.673 34.2134 180.167 35.2267ZM179.927 24.0001C181.953 24.0001 176.46 24.1601 199.1 22.2134C198.487 30.9867 198.887 29.4401 194.913 30.2134C181.82 32.8801 180.887 33.4667 180.327 32.8801C179.767 32.2934 180.167 28.2667 179.98 26.6667C179.98 26.5067 179.9 24.9334 179.927 24.0001Z" fill="#003366"></path>
<path fill-rule="evenodd" clip-rule="evenodd" d="M198.247 40C198.343 39.8318 198.39 39.64 198.383 39.4463C198.376 39.2527 198.315 39.0648 198.207 38.904C198.099 38.7432 197.948 38.6158 197.771 38.5362C197.594 38.4566 197.399 38.4279 197.207 38.4534C196.433 38.4534 194.54 38.6667 194.06 38.6667C189.935 38.591 185.819 39.0663 181.82 40.08C180.167 39.8934 180.54 41.0667 181.393 41.4934C183.527 43.3067 197.687 40.6134 198.247 40Z" fill="#003366"></path>
<path fill-rule="evenodd" clip-rule="evenodd" d="M181.793 52.1067C182.403 52.1111 183.011 52.0485 183.607 51.9201C185.642 51.8727 187.672 51.7035 189.687 51.4134C192.86 50.8801 195.82 49.7601 198.673 49.5201C198.884 49.4836 199.075 49.3739 199.212 49.2105C199.35 49.0471 199.425 48.8403 199.425 48.6267C199.425 48.4131 199.35 48.2064 199.212 48.043C199.075 47.8795 198.884 47.7699 198.673 47.7334C191.42 47.1201 181.5 50.4001 181.287 51.0134C181.073 51.6267 181.42 51.9201 181.793 52.1067Z" fill="#003366"></path>
</g>
<defs>
<clipPath id="clip0_2072_2046">
<rect width="64" height="64" fill="white" transform="translate(153.5)"></rect>
</clipPath>
</defs>
</svg>
