<svg width="20" height="25" viewBox="0 0 20 25" fill="none" xmlns="http://www.w3.org/2000/svg">
<path d="M16.8299 7.74993C16.5422 7.4938 16.2383 7.25664 15.9199 7.03993L15.9999 6.96993C16.0599 6.89993 16.1799 6.83993 16.2699 6.74993C16.3799 6.62542 16.4739 6.4877 16.5499 6.33993C16.5999 6.23993 16.6399 6.13993 16.6799 6.04993L17.2399 6.34993C17.3559 6.43216 17.4798 6.50251 17.6099 6.55993C17.8099 6.61993 17.9399 6.55993 17.9999 6.55993C18.0599 6.55993 18.1499 6.41993 18.1299 6.27993C18.1287 6.21476 18.1094 6.15121 18.074 6.09644C18.0387 6.04167 17.9888 5.99785 17.9299 5.96993C17.9299 5.90993 17.7899 5.78993 17.7699 5.75993L17.2599 5.17993C17.0672 5.0099 16.8634 4.85289 16.6499 4.70993C16.4799 4.60993 16.2999 4.55993 16.1299 4.47993C15.5599 4.24993 15.4299 4.13993 15.2299 4.21993C15.0299 4.29993 14.9299 4.47993 15.2299 4.78993C15.3829 4.96322 15.5466 5.12687 15.7199 5.27993C15.8399 5.37993 15.9399 5.49993 16.0499 5.60993L15.9399 5.66993C15.8099 5.78993 15.6299 5.85993 15.4999 5.98993C15.3727 6.11829 15.268 6.267 15.1899 6.42993V6.58993C13.8289 5.86054 12.3368 5.40848 10.7999 5.25993V5.09993C10.81 4.9768 10.81 4.85306 10.7999 4.72993C10.8141 4.61035 10.8141 4.48951 10.7999 4.36993C10.7999 4.13993 10.6899 3.88993 10.6099 3.56993C11.1799 3.56993 11.7499 3.46993 12.3299 3.37993C12.4077 3.37231 12.4795 3.33459 12.5299 3.27482C12.5804 3.21505 12.6055 3.13794 12.5999 3.05993C12.5961 3.02046 12.5846 2.98212 12.5659 2.94714C12.5473 2.91215 12.5219 2.88121 12.4912 2.8561C12.4605 2.83099 12.4252 2.81222 12.3872 2.80086C12.3492 2.7895 12.3093 2.78579 12.2699 2.78993C11.5106 2.83505 10.7492 2.83505 9.98988 2.78993C9.50278 2.73266 9.02118 2.63567 8.54988 2.49993C8.39243 2.45324 8.24612 2.37498 8.11988 2.26993C8.01988 2.19993 7.87988 2.14993 7.91988 2.03993C7.99433 1.92133 8.10219 1.82739 8.22988 1.76993C8.31526 1.71925 8.41097 1.68849 8.50988 1.67993C9.15988 1.62993 9.89988 1.52993 10.6099 1.48993C10.8964 1.4753 11.1834 1.4753 11.4699 1.48993C11.743 1.4744 12.0168 1.4744 12.2899 1.48993C12.4247 1.50442 12.5545 1.54884 12.6699 1.61993C12.7585 1.68094 12.8195 1.77432 12.8399 1.87993C12.875 2.02111 12.875 2.16875 12.8399 2.30993C12.8278 2.35327 12.8244 2.39858 12.8299 2.44323C12.8355 2.48789 12.8498 2.53099 12.8722 2.57006C12.8945 2.60913 12.9243 2.64338 12.96 2.67082C12.9957 2.69826 13.0364 2.71835 13.0799 2.72993C13.1661 2.75474 13.2586 2.74449 13.3372 2.70141C13.4159 2.65833 13.4744 2.58591 13.4999 2.49993C13.585 2.19916 13.585 1.8807 13.4999 1.57993C13.4384 1.3482 13.3054 1.14175 13.1199 0.989931C12.9199 0.83387 12.6876 0.724532 12.4399 0.669931C12.1397 0.609019 11.8356 0.568924 11.5299 0.549931C11.1116 0.503527 10.6905 0.486819 10.2699 0.499931C9.64989 0.499931 9.01988 0.549931 8.44988 0.559931C8.11142 0.577664 7.78516 0.692201 7.50988 0.889931C7.21325 1.08548 6.98034 1.36358 6.83988 1.68993C6.76791 1.89591 6.75602 2.11811 6.8056 2.3306C6.85518 2.54308 6.96418 2.73708 7.11988 2.88993C7.4614 3.20919 7.88905 3.42127 8.34988 3.49993C8.86372 3.56643 9.38193 3.59318 9.89988 3.57993C9.82988 3.87993 9.76988 4.11993 9.72988 4.33993C9.72116 4.46311 9.72116 4.58675 9.72988 4.70993V5.07993C9.7266 5.10315 9.7266 5.12671 9.72988 5.14993C8.86738 5.11369 8.0034 5.16058 7.14988 5.28993C5.63836 5.56693 4.23612 6.26613 3.10532 7.30668C1.97452 8.34722 1.16136 9.68661 0.759884 11.1699C-0.15141 14.0683 0.118119 17.2092 1.50988 19.9099C3.22988 23.1299 7.61988 24.8199 11.6699 24.3899C21.6199 23.3799 21.1099 11.6099 16.8299 7.74993ZM16.4599 21.6599C15.4599 22.8699 12.9899 23.3999 9.99988 23.5599C7.00988 23.7199 5.23988 22.1599 3.22988 20.5599C2.94821 20.2353 2.70958 19.8756 2.51988 19.4899C1.29655 17.0442 1.07067 14.219 1.88988 11.6099C2.27181 10.3315 2.9581 9.16487 3.88988 8.20993C4.86372 7.30491 6.06171 6.67657 7.35988 6.38993C8.9878 6.10261 10.6565 6.13999 12.2699 6.49993C13.7089 6.88637 15.0647 7.53377 16.2699 8.40993C17.8463 10.2985 18.7441 12.661 18.8199 15.1199C18.8799 17.7499 17.9999 20.3799 16.4599 21.6599Z" fill="#003366"></path>
</svg>
