<svg width="371" height="64" viewBox="0 0 371 64" fill="none" xmlns="http://www.w3.org/2000/svg">
<path fill-rule="evenodd" clip-rule="evenodd" d="M200.161 25.3419C200.352 24.6786 200.49 24.0023 200.575 23.3188C200.601 22.8222 200.601 22.3247 200.575 21.8281C200.756 20.55 200.451 19.2517 199.715 18.1745C198.979 17.0973 197.863 16.3146 196.573 15.9718C193.254 15.6245 189.901 16.2067 186.916 17.6488C184.468 18.7395 182.3 20.3395 180.569 22.3339C178.498 24.6792 176.599 27.1608 174.885 29.7607C174.709 29.751 174.534 29.7978 174.388 29.8938C173.056 30.7451 171.619 31.4336 170.111 31.9435C168.658 32.4446 167.129 32.7143 165.586 32.7421C164.507 32.6025 163.438 32.398 162.385 32.1299C161.656 32.0167 160.909 32.0715 160.205 32.2896C159.389 32.612 158.661 33.1132 158.081 33.7537C157.41 34.5337 156.801 35.3612 156.259 36.2293C154.944 37.7861 154.002 39.6041 153.5 41.5532C153.495 42.3379 153.704 43.1101 154.106 43.7923C154.508 44.4745 155.089 45.0426 155.79 45.4396L158.715 47.2498C158.809 47.3169 158.916 47.3653 159.03 47.3923C159.143 47.4193 159.261 47.4243 159.376 47.4069C159.492 47.3896 159.603 47.3503 159.702 47.2913C159.802 47.2324 159.889 47.1549 159.957 47.0634C160.088 46.8749 160.137 46.6449 160.096 46.4217C160.055 46.1984 159.926 45.9991 159.736 45.8656L156.977 43.9223C156.011 43.0971 155.68 42.405 155.763 41.7395C155.899 41.2184 156.143 40.7294 156.48 40.3021C156.866 39.7697 157.336 39.2373 157.805 38.6517C158.395 39.3639 159.031 40.0396 159.709 40.6747C160.026 40.9932 160.378 41.2787 160.757 41.5266C161.122 41.7968 161.51 42.0372 161.916 42.2453C162.827 42.7511 163.765 43.177 164.675 43.6295L159.157 51.4024C159.038 51.569 158.992 51.7738 159.028 51.9729C159.064 52.172 159.18 52.3494 159.35 52.4672C159.48 52.5643 159.64 52.617 159.805 52.617C159.97 52.617 160.13 52.5643 160.26 52.4672C160.23 52.6253 160.257 52.7889 160.337 52.9298C160.418 53.0707 160.547 53.1801 160.702 53.2392C161.57 54.1752 162.491 55.0639 163.461 55.9011C163.932 56.2361 164.42 56.5471 164.924 56.8328C165.425 57.1235 165.952 57.3728 166.497 57.5782C167.771 58.0746 169.092 58.4491 170.442 58.6962C170.669 58.7731 170.919 58.7602 171.136 58.6605C171.353 58.5607 171.52 58.3822 171.601 58.1638C171.671 57.9485 171.648 57.7155 171.54 57.5159C171.431 57.3163 171.245 57.1664 171.022 57.099C169.835 56.5134 168.814 55.7946 167.711 55.1292C166.607 54.4637 166.248 54.2241 165.503 53.8248C164.179 53.1593 162.744 52.6535 161.447 51.9881C161.342 51.9296 161.223 51.8989 161.102 51.8989C160.981 51.8989 160.862 51.9296 160.757 51.9881L165.586 45.7591C165.628 45.8613 165.694 45.9526 165.779 46.0253C166.855 46.957 167.766 48.0217 168.814 48.9534C169.534 49.5904 170.299 50.1775 171.105 50.7103C172.513 51.601 174.022 52.3334 175.602 52.8931C175.815 52.9733 176.052 52.9733 176.265 52.8931L175.796 53.4787C174.499 55.3155 172.953 57.0191 171.739 58.5631C171.576 58.7225 171.484 58.9378 171.484 59.162C171.484 59.3863 171.576 59.6015 171.739 59.761C171.909 59.9203 172.137 60.0095 172.374 60.0095C172.611 60.0095 172.839 59.9203 173.009 59.761C173.754 58.989 174.526 58.0839 175.354 57.099C175.271 57.1549 175.2 57.2261 175.145 57.3085C175.09 57.391 175.052 57.483 175.034 57.5795C175.017 57.6759 175.018 57.7748 175.04 57.8705C175.062 57.9662 175.103 58.0568 175.161 58.1372C175.778 59.5035 176.724 60.708 177.92 61.6509C178.634 62.1838 179.424 62.6142 180.266 62.9287C181.489 63.3949 182.755 63.7513 184.046 63.9935C184.681 64.2064 189.04 59.202 189.123 59.0955C189.915 58.1099 190.462 56.9626 190.724 55.7414C190.812 55.0684 190.736 54.3848 190.503 53.7449C190.172 52.7334 189.454 51.6952 189.261 50.8434C188.791 49.2416 188.559 47.5836 188.571 45.9188C188.538 44.2315 188.79 42.5502 189.316 40.9409C189.331 40.8706 189.331 40.7983 189.316 40.728C191.629 38.4587 193.821 36.0776 195.884 33.5939C197.895 31.1638 199.352 28.352 200.161 25.3419ZM187.964 20.3374C190.358 19.133 193.055 18.6069 195.746 18.8201C196.905 19.1129 197.622 20.0446 197.677 21.908C197.732 22.359 197.732 22.8146 197.677 23.2656C197.612 23.7491 197.52 24.229 197.401 24.703C196.969 26.4974 196.242 28.2137 195.249 29.7874C195.304 29.1051 195.304 28.4199 195.249 27.7376C195.221 26.8242 195.025 25.9228 194.67 25.0757C194.278 24.2362 193.682 23.5002 192.933 22.9302C192.183 22.3602 191.303 21.973 190.365 21.8015C188.266 21.4971 186.121 21.8126 184.212 22.7066C185.312 21.7147 186.582 20.9133 187.964 20.3374ZM163.737 40.0891C163.406 39.7845 163.056 39.5 162.689 39.2373C162.329 38.9733 161.951 38.7332 161.557 38.5186C160.725 38.0588 159.869 37.6412 158.991 37.2674C159.372 36.6965 159.796 36.1537 160.26 35.6437C160.54 35.3443 160.878 35.1002 161.254 34.9249C161.508 34.8708 161.772 34.8708 162.026 34.9249C163.254 35.1581 164.501 35.2828 165.752 35.2976C167.554 35.0786 169.306 34.575 170.939 33.8069C171.519 33.5407 172.07 33.2213 172.622 32.9018L165.917 42.2187C165.172 41.5 164.51 40.7812 163.737 40.0891ZM176.458 51.3758C175.335 50.5533 174.266 49.6642 173.257 48.7138C172.54 48.1282 171.822 47.516 171.022 46.9836C169.639 46.1101 168.18 45.3531 166.662 44.7209C166.662 44.7209 166.497 44.7209 166.414 44.7209L175.989 32.4227C178.093 29.5542 180.359 26.7994 182.777 24.1706V23.9577V24.0908C182.816 24.1822 182.874 24.2652 182.946 24.3349C183.019 24.4046 183.105 24.4596 183.2 24.4968C183.296 24.534 183.397 24.5525 183.5 24.5514C183.602 24.5502 183.704 24.5294 183.798 24.4901C185.408 24.0244 187.11 23.9332 188.765 24.2239C189.468 24.325 190.143 24.5603 190.751 24.916C191.33 25.203 191.81 25.6471 192.131 26.1937C192.561 26.8965 192.842 27.6746 192.959 28.483C193.078 29.3655 193.134 30.255 193.124 31.1449C193.102 31.3132 193.131 31.4842 193.21 31.6359C193.289 31.7877 193.413 31.9134 193.566 31.9968C191.027 35.3508 187.826 38.3855 185.288 41.5266C182.749 44.6677 179.769 48.3944 176.872 52.1744C176.901 52.016 176.877 51.8526 176.802 51.7087C176.728 51.5648 176.607 51.448 176.458 51.3758ZM184.488 61.4646C184.379 61.6224 184.321 61.8077 184.322 61.997C183.135 61.3581 181.921 60.5596 180.652 59.761C180.224 59.4911 179.782 59.2424 179.328 59.0156C178.886 58.7494 178.417 58.5631 177.975 58.2969C177.424 57.9757 176.914 57.5914 176.458 57.1522C176.4 57.0718 176.326 57.0031 176.241 56.9502C176.155 56.8973 176.06 56.8612 175.96 56.8439C175.86 56.8266 175.757 56.8284 175.658 56.8494C175.559 56.8703 175.465 56.9099 175.382 56.9659L177.258 54.6766L178.776 52.8931C178.777 52.9898 178.799 53.0851 178.842 53.1724C178.885 53.2598 178.947 53.337 179.024 53.3989C179.631 54.1975 180.128 55.0493 180.79 55.8213C181.064 56.1574 181.369 56.4692 181.701 56.753C182.033 57.0312 182.383 57.2891 182.749 57.5249C183.622 58.1061 184.545 58.6138 185.508 59.0422C185.696 59.1603 185.922 59.2077 186.143 59.1753C185.674 60.0005 185.039 60.7725 184.488 61.4646ZM187.247 57.7379L186.971 58.1372C186.914 57.9409 186.799 57.765 186.64 57.6314C185.895 56.9393 185.315 56.1673 184.626 55.4486C184.173 54.9626 183.684 54.5089 183.163 54.091C182.206 53.4193 181.201 52.8144 180.155 52.2809C180.058 52.2097 179.947 52.1587 179.828 52.1312C179.709 52.1037 179.586 52.1003 179.466 52.1212C182.032 49.0599 184.598 45.9188 186.75 43.4698C186.538 44.1853 186.382 44.9149 186.281 45.6526C186.027 47.558 186.092 49.4905 186.474 51.3758C186.723 52.3075 187.44 53.4521 187.854 54.5169C187.987 54.7548 188.063 55.0187 188.075 55.2889C188.011 56.1583 187.726 56.9992 187.247 57.7379Z" fill="#343434"></path>
<path fill-rule="evenodd" clip-rule="evenodd" d="M205.265 35.6702C206.811 33.4874 208.356 31.3312 209.653 29.0419C210.544 27.4678 211.31 25.8304 211.943 24.1439C212.886 21.0345 213.112 17.7636 212.605 14.5609C211.77 10.0564 210.627 5.61011 209.184 1.25112C209.138 1.07758 209.03 0.925606 208.878 0.822967C208.726 0.720327 208.541 0.673878 208.356 0.692108C208.327 0.514103 208.239 0.350093 208.104 0.225122C207.97 0.100151 207.796 0.0210863 207.611 0C204.356 0.0942088 201.111 0.39656 197.898 0.905065C195.661 1.2687 193.469 1.85755 191.358 2.66195C189.272 3.51374 187.313 4.63296 185.536 5.9894C182.963 8.07515 180.547 10.3346 178.307 12.7508C176.899 14.2415 175.409 15.7055 174.03 17.2228C173.049 18.2468 172.128 19.3221 171.27 20.4438C171.135 20.5902 171.06 20.7798 171.06 20.9762C171.06 21.1726 171.135 21.3622 171.27 21.5086C171.36 21.6036 171.474 21.6754 171.6 21.7174C171.726 21.7595 171.861 21.7704 171.993 21.7492C172.124 21.7281 172.248 21.6755 172.353 21.5963C172.459 21.517 172.542 21.4137 172.595 21.2956C173.457 20.2875 174.378 19.3276 175.354 18.4207C176.872 17.0365 178.5 15.7588 180.017 14.3746C182.303 12.2028 184.707 10.1502 187.219 8.22544C188.829 6.98483 190.589 5.93889 192.462 5.11095C194.321 4.27743 196.263 3.62641 198.257 3.16773C201.338 2.48729 204.463 2.00706 207.611 1.73027C208.634 6.05892 209.398 10.4406 209.901 14.8537C210.226 17.6775 209.925 20.5358 209.018 23.2389C208.451 24.7928 207.769 26.3051 206.976 27.7642C205.79 30.0268 204.465 32.2096 203.086 34.3925C202.142 35.9459 201.111 37.4478 199.995 38.8912C198.931 40.3327 197.789 41.7188 196.574 43.0438C196.408 43.2078 196.316 43.4274 196.316 43.6561C196.316 43.8847 196.408 44.1043 196.574 44.2683C196.739 44.426 196.962 44.5144 197.194 44.5144C197.427 44.5144 197.65 44.426 197.815 44.2683C199.202 42.9581 200.519 41.581 201.761 40.1423C202.975 38.7048 204.134 37.2674 205.265 35.6702Z" fill="#343434"></path>
<path fill-rule="evenodd" clip-rule="evenodd" d="M217.048 29.2815C216.579 27.5513 215.889 25.8476 215.392 24.3569C215.334 24.1647 215.201 24.0017 215.021 23.9024C214.841 23.803 214.628 23.7751 214.427 23.8245C214.229 23.8746 214.061 23.9979 213.957 24.1674C213.854 24.3369 213.824 24.539 213.875 24.7296C214.206 26.2469 214.73 27.9772 215.006 29.6808C215.171 30.6951 215.171 31.7278 215.006 32.7421C214.88 33.4999 214.639 34.2356 214.289 34.9249C213.737 36.0961 213.047 37.1875 212.412 38.3056C211.252 40.5372 209.904 42.6738 208.384 44.6943C206.121 47.862 203.693 50.9232 201.403 54.091C201.269 54.2763 201.215 54.5042 201.251 54.7272C201.287 54.9502 201.41 55.1513 201.596 55.2888C201.688 55.3573 201.793 55.4076 201.906 55.4366C202.018 55.4657 202.136 55.473 202.251 55.4582C202.366 55.4433 202.478 55.4066 202.578 55.3501C202.679 55.2937 202.767 55.2186 202.837 55.1291C205.79 51.642 209.101 48.3677 211.86 44.7209C213.072 43.1006 214.152 41.3918 215.089 39.6099C215.668 38.3854 216.358 37.1875 216.827 35.9098C217.2 34.9717 217.424 33.9844 217.489 32.9817C217.543 31.7336 217.394 30.4852 217.048 29.2815Z" fill="#003366"></path>
<path fill-rule="evenodd" clip-rule="evenodd" d="M158.108 22.4137L164.179 14.9868C165.255 13.4962 166.304 11.7659 167.545 10.2486C167.967 9.66286 168.447 9.11894 168.98 8.62478C169.445 8.24309 169.978 7.9455 170.553 7.74633C171.602 7.34704 172.733 7.13408 173.864 6.81465C175.713 6.25564 177.424 5.59015 179.217 5.13762C180.379 4.82679 181.573 4.63935 182.777 4.5786C182.984 4.57872 183.184 4.50106 183.333 4.36199C183.483 4.22293 183.57 4.03335 183.577 3.83326C183.57 3.63063 183.484 3.43812 183.335 3.29476C183.187 3.15141 182.987 3.06794 182.777 3.06129C181.457 3.01833 180.135 3.09856 178.831 3.30087C176.955 3.56706 175.161 4.01959 173.312 4.36565C172.077 4.54342 170.852 4.78332 169.642 5.08438C168.706 5.37743 167.836 5.83799 167.076 6.44197C166.118 7.26566 165.274 8.20509 164.565 9.23703C163.572 10.6479 162.799 12.2184 161.806 13.6026C160.813 14.9868 160.702 15.7056 159.957 16.7437C158.881 18.3143 157.777 19.8582 156.701 21.2957C156.63 21.3847 156.578 21.4864 156.548 21.5949C156.518 21.7033 156.51 21.8165 156.526 21.9278C156.541 22.0392 156.579 22.1465 156.638 22.2436C156.696 22.3407 156.774 22.4256 156.867 22.4936C157.046 22.6347 157.273 22.705 157.504 22.6902C157.734 22.6754 157.951 22.5765 158.108 22.4137Z" fill="#003366"></path>
</svg>
