<svg width="28" height="28" viewBox="0 0 28 28" fill="none" xmlns="http://www.w3.org/2000/svg">
<path d="M15.4498 2.31224L14.6476 2.78735C13.7663 3.30922 13.3257 3.57015 12.8403 3.63095C12.3549 3.69174 11.8797 3.54551 10.9293 3.25305L10.0641 2.98678C6.71951 1.9576 5.04724 1.443 4.04203 2.36304C3.03682 3.28307 3.36439 5.02842 4.01953 8.51913L4.18902 9.42221C4.37519 10.4142 4.46827 10.9101 4.35785 11.3947C4.24743 11.8792 3.94601 12.2974 3.34316 13.1339L2.79432 13.8954C0.672875 16.8389 -0.387847 18.3106 0.129638 19.5308C0.647122 20.7509 2.4001 20.9113 5.90604 21.2322L6.81309 21.3152C7.80936 21.4064 8.30752 21.452 8.72466 21.6907C9.1418 21.9294 9.43072 22.3341 10.0086 23.1435L10.5346 23.8804C12.568 26.7288 13.5848 28.1529 14.9098 27.987C16.2348 27.821 16.9906 26.1748 18.5023 22.8825L18.8934 22.0307C19.1129 21.5525 19.2764 21.1966 19.4329 20.9178L25.8575 27.3425C26.2676 27.7525 26.9324 27.7525 27.3425 27.3425C27.7525 26.9324 27.7525 26.2676 27.3425 25.8575L21.138 19.6531C21.3088 19.5909 21.4995 19.5241 21.7142 19.4489L22.5881 19.1429C25.9663 17.9598 27.6554 17.3682 27.9568 16.0455C28.2582 14.7228 26.9724 13.545 24.4007 11.1893L23.7354 10.5798C23.0046 9.91041 22.6392 9.57569 22.4496 9.12874C22.26 8.68179 22.2678 8.1732 22.2832 7.15602L22.2973 6.2299C22.3517 2.65033 22.3789 0.860549 21.2402 0.209037C20.1014 -0.442473 18.5509 0.475767 15.4498 2.31224Z" fill="#FBFBFB"></path>
</svg>
